<?xml version="1.0" encoding="utf-8"?>
<!-- Generator: Adobe Illustrator 17.1.0, SVG Export Plug-In . SVG Version: 6.00 Build 0)  -->
<!DOCTYPE svg PUBLIC "-//W3C//DTD SVG 1.1//EN" "http://www.w3.org/Graphics/SVG/1.1/DTD/svg11.dtd">
<svg version="1.1" id="Layer_1" xmlns="http://www.w3.org/2000/svg" xmlns:xlink="http://www.w3.org/1999/xlink" x="0px" y="0px"
	 viewBox="0 0 571.7 121.7" enable-background="new 0 0 571.7 121.7" xml:space="preserve">
<g>
	<g>
		<path fill="#FFFFFF" d="M35.6,35.5c-4.7,0-7.3,2.4-7.3,7.7v2.8h16.4v16.5H28.6v54H8.4v-54H0V45.9h8.4v-4.5
			c0-15.7,7.8-22.9,22.1-22.9c6.4,0,10.6,0.8,14.4,2v16.7C41.9,36.2,39.1,35.5,35.6,35.5z"/>
		<path fill="#FFFFFF" d="M97.6,116.5v-10.1c-4.7,6-10.6,11.4-20.9,11.4c-15.3,0-24.2-10.1-24.2-26.5V45.3h20.2V85
			c0,9.6,4.5,14.5,12.2,14.5S97.6,94.6,97.6,85V45.3h20.2v71.3H97.6z"/>
		<path fill="#FFFFFF" d="M155.5,117.8c-10,0-21.1-3.3-30.6-10.8l8.6-13.3c7.7,5.6,15.8,8.5,22.5,8.5c5.8,0,8.5-2.1,8.5-5.3v-0.3
			c0-4.4-6.9-5.8-14.8-8.2c-10-2.9-21.3-7.6-21.3-21.4v-0.3c0-14.5,11.7-22.6,26.1-22.6c9,0,18.9,3.1,26.6,8.2l-7.7,14
			c-7-4.1-14.1-6.6-19.3-6.6c-4.9,0-7.4,2.1-7.4,4.9v0.3c0,4,6.8,5.8,14.5,8.5c10,3.3,21.5,8.1,21.5,21.1v0.3
			C182.8,110.7,170.9,117.8,155.5,117.8z"/>
		<path fill="#FFFFFF" d="M189.7,37.4V19.5H211v17.9H189.7z M190.2,116.5V45.3h20.2v71.3H190.2z"/>
		<path fill="#FFFFFF" d="M253.8,118.1c-22.1,0-38.4-16.4-38.4-36.8V81c0-20.5,16.5-37.1,38.7-37.1c22.1,0,38.4,16.4,38.4,36.8V81
			C292.4,101.5,276,118.1,253.8,118.1z M272.5,81c0-10.5-7.6-19.7-18.7-19.7c-11.6,0-18.5,8.9-18.5,19.4V81
			c0,10.5,7.6,19.7,18.7,19.7c11.6,0,18.5-8.9,18.5-19.4V81z"/>
		<path fill="#FFFFFF" d="M344.1,116.5V76.8c0-9.6-4.5-14.5-12.2-14.5c-7.7,0-12.6,4.9-12.6,14.5v39.7h-20.2V45.3h20.2v10.1
			c4.7-6,10.6-11.4,20.9-11.4c15.3,0,24.2,10.1,24.2,26.5v46.1H344.1z"/>
	</g>
	<rect x="389.7" y="50" fill="#FFFFFF" width="20" height="67"/>
	<rect x="443.7" fill="#FFFFFF" width="20" height="117"/>
	<rect x="551.7" y="65" fill="#FFFFFF" width="20" height="52"/>
	<rect x="470.7" y="50" fill="#FFFFFF" width="20" height="67"/>
	<rect x="497.7" y="80" fill="#FFFFFF" width="20" height="37"/>
	<rect x="524.7" y="29" fill="#FFFFFF" width="20" height="88"/>
	<rect x="416.7" y="24" fill="#FFFFFF" width="20" height="93"/>
</g>
</svg>
